<mxfile host="app.diagrams.net" agent="Mozilla/5.0 (Macintosh; Intel Mac OS X 10_15_7) AppleWebKit/537.36 (KHTML, like Gecko) Chrome/137.0.0.0 Safari/537.36" version="27.1.6">
  <diagram name="PÃ¡gina-1" id="VmD-yL4hsFWsiunB92W7">
    <mxGraphModel dx="1426" dy="797" grid="1" gridSize="10" guides="1" tooltips="1" connect="1" arrows="1" fold="1" page="1" pageScale="1" pageWidth="827" pageHeight="1169" background="none" math="0" shadow="0">
      <root>
        <mxCell id="0" />
        <mxCell id="1" parent="0" />
        <mxCell id="uigy-FgtRVpShGd_WQau-39" style="edgeStyle=orthogonalEdgeStyle;rounded=0;orthogonalLoop=1;jettySize=auto;html=1;exitX=0.5;exitY=0;exitDx=0;exitDy=0;entryX=1;entryY=0.5;entryDx=0;entryDy=0;" edge="1" parent="1" source="uigy-FgtRVpShGd_WQau-1" target="uigy-FgtRVpShGd_WQau-33">
          <mxGeometry relative="1" as="geometry" />
        </mxCell>
        <mxCell id="uigy-FgtRVpShGd_WQau-42" style="edgeStyle=orthogonalEdgeStyle;rounded=0;orthogonalLoop=1;jettySize=auto;html=1;exitX=0;exitY=0.75;exitDx=0;exitDy=0;entryX=1;entryY=1;entryDx=0;entryDy=0;" edge="1" parent="1" source="uigy-FgtRVpShGd_WQau-1" target="uigy-FgtRVpShGd_WQau-34">
          <mxGeometry relative="1" as="geometry" />
        </mxCell>
        <mxCell id="uigy-FgtRVpShGd_WQau-43" style="edgeStyle=orthogonalEdgeStyle;rounded=0;orthogonalLoop=1;jettySize=auto;html=1;exitX=0.25;exitY=1;exitDx=0;exitDy=0;entryX=1;entryY=0.5;entryDx=0;entryDy=0;" edge="1" parent="1" source="uigy-FgtRVpShGd_WQau-1" target="uigy-FgtRVpShGd_WQau-35">
          <mxGeometry relative="1" as="geometry" />
        </mxCell>
        <mxCell id="uigy-FgtRVpShGd_WQau-45" style="edgeStyle=orthogonalEdgeStyle;rounded=0;orthogonalLoop=1;jettySize=auto;html=1;entryX=1;entryY=0.5;entryDx=0;entryDy=0;" edge="1" parent="1" source="uigy-FgtRVpShGd_WQau-1" target="uigy-FgtRVpShGd_WQau-38">
          <mxGeometry relative="1" as="geometry" />
        </mxCell>
        <mxCell id="uigy-FgtRVpShGd_WQau-46" style="edgeStyle=orthogonalEdgeStyle;rounded=0;orthogonalLoop=1;jettySize=auto;html=1;entryX=0.5;entryY=1;entryDx=0;entryDy=0;" edge="1" parent="1" source="uigy-FgtRVpShGd_WQau-1" target="uigy-FgtRVpShGd_WQau-37">
          <mxGeometry relative="1" as="geometry" />
        </mxCell>
        <mxCell id="uigy-FgtRVpShGd_WQau-81" style="edgeStyle=orthogonalEdgeStyle;rounded=0;orthogonalLoop=1;jettySize=auto;html=1;exitX=1;exitY=0.25;exitDx=0;exitDy=0;entryX=0;entryY=0.5;entryDx=0;entryDy=0;" edge="1" parent="1" source="uigy-FgtRVpShGd_WQau-1" target="uigy-FgtRVpShGd_WQau-30">
          <mxGeometry relative="1" as="geometry" />
        </mxCell>
        <mxCell id="uigy-FgtRVpShGd_WQau-83" style="edgeStyle=orthogonalEdgeStyle;rounded=0;orthogonalLoop=1;jettySize=auto;html=1;exitX=1;exitY=0.75;exitDx=0;exitDy=0;entryX=0;entryY=0.5;entryDx=0;entryDy=0;" edge="1" parent="1" source="uigy-FgtRVpShGd_WQau-1" target="uigy-FgtRVpShGd_WQau-4">
          <mxGeometry relative="1" as="geometry" />
        </mxCell>
        <mxCell id="uigy-FgtRVpShGd_WQau-84" style="edgeStyle=orthogonalEdgeStyle;rounded=0;orthogonalLoop=1;jettySize=auto;html=1;exitX=1;exitY=0.5;exitDx=0;exitDy=0;entryX=0;entryY=0.5;entryDx=0;entryDy=0;" edge="1" parent="1" source="uigy-FgtRVpShGd_WQau-1" target="uigy-FgtRVpShGd_WQau-51">
          <mxGeometry relative="1" as="geometry" />
        </mxCell>
        <mxCell id="uigy-FgtRVpShGd_WQau-1" value="CLIENTES" style="rounded=0;whiteSpace=wrap;html=1;fillColor=#0050ef;fontColor=#ffffff;strokeColor=#001DBC;" vertex="1" parent="1">
          <mxGeometry x="264" y="920" width="166" height="90" as="geometry" />
        </mxCell>
        <mxCell id="uigy-FgtRVpShGd_WQau-77" style="edgeStyle=orthogonalEdgeStyle;rounded=0;orthogonalLoop=1;jettySize=auto;html=1;entryX=0;entryY=0.5;entryDx=0;entryDy=0;" edge="1" parent="1" source="uigy-FgtRVpShGd_WQau-4" target="uigy-FgtRVpShGd_WQau-24">
          <mxGeometry relative="1" as="geometry" />
        </mxCell>
        <mxCell id="uigy-FgtRVpShGd_WQau-4" value="ASIGNAR" style="rhombus;whiteSpace=wrap;html=1;fillColor=#6a00ff;fontColor=#ffffff;strokeColor=#3700CC;" vertex="1" parent="1">
          <mxGeometry x="510" y="1285" width="80" height="80" as="geometry" />
        </mxCell>
        <mxCell id="uigy-FgtRVpShGd_WQau-10" value="NOMBRE&amp;nbsp;" style="ellipse;whiteSpace=wrap;html=1;" vertex="1" parent="1">
          <mxGeometry x="650" y="480" width="60" height="60" as="geometry" />
        </mxCell>
        <mxCell id="uigy-FgtRVpShGd_WQau-12" value="ID" style="ellipse;whiteSpace=wrap;html=1;" vertex="1" parent="1">
          <mxGeometry x="570" y="480" width="60" height="60" as="geometry" />
        </mxCell>
        <mxCell id="uigy-FgtRVpShGd_WQau-13" value="INF" style="ellipse;whiteSpace=wrap;html=1;" vertex="1" parent="1">
          <mxGeometry x="730" y="480" width="60" height="60" as="geometry" />
        </mxCell>
        <mxCell id="uigy-FgtRVpShGd_WQau-21" value="NOMBRE&amp;nbsp;" style="ellipse;whiteSpace=wrap;html=1;" vertex="1" parent="1">
          <mxGeometry x="655" y="1190" width="60" height="60" as="geometry" />
        </mxCell>
        <mxCell id="uigy-FgtRVpShGd_WQau-22" value="ID" style="ellipse;whiteSpace=wrap;html=1;" vertex="1" parent="1">
          <mxGeometry x="580" y="1190" width="60" height="60" as="geometry" />
        </mxCell>
        <mxCell id="uigy-FgtRVpShGd_WQau-23" value="INF" style="ellipse;whiteSpace=wrap;html=1;" vertex="1" parent="1">
          <mxGeometry x="740" y="1190" width="60" height="60" as="geometry" />
        </mxCell>
        <mxCell id="uigy-FgtRVpShGd_WQau-74" style="edgeStyle=orthogonalEdgeStyle;rounded=0;orthogonalLoop=1;jettySize=auto;html=1;entryX=0.5;entryY=1;entryDx=0;entryDy=0;" edge="1" parent="1" source="uigy-FgtRVpShGd_WQau-24" target="uigy-FgtRVpShGd_WQau-21">
          <mxGeometry relative="1" as="geometry" />
        </mxCell>
        <mxCell id="uigy-FgtRVpShGd_WQau-75" style="edgeStyle=orthogonalEdgeStyle;rounded=0;orthogonalLoop=1;jettySize=auto;html=1;exitX=0.75;exitY=0;exitDx=0;exitDy=0;entryX=0.5;entryY=1;entryDx=0;entryDy=0;" edge="1" parent="1" source="uigy-FgtRVpShGd_WQau-24" target="uigy-FgtRVpShGd_WQau-23">
          <mxGeometry relative="1" as="geometry" />
        </mxCell>
        <mxCell id="uigy-FgtRVpShGd_WQau-76" style="edgeStyle=orthogonalEdgeStyle;rounded=0;orthogonalLoop=1;jettySize=auto;html=1;exitX=0.25;exitY=0;exitDx=0;exitDy=0;entryX=0.5;entryY=1;entryDx=0;entryDy=0;" edge="1" parent="1" source="uigy-FgtRVpShGd_WQau-24" target="uigy-FgtRVpShGd_WQau-22">
          <mxGeometry relative="1" as="geometry" />
        </mxCell>
        <mxCell id="uigy-FgtRVpShGd_WQau-24" value="&lt;div&gt;TARJETA DEBITO&lt;/div&gt;" style="rounded=0;whiteSpace=wrap;html=1;fillColor=#0050ef;fontColor=#ffffff;strokeColor=#001DBC;" vertex="1" parent="1">
          <mxGeometry x="640" y="1300" width="90" height="50" as="geometry" />
        </mxCell>
        <mxCell id="uigy-FgtRVpShGd_WQau-57" style="edgeStyle=orthogonalEdgeStyle;rounded=0;orthogonalLoop=1;jettySize=auto;html=1;" edge="1" parent="1" source="uigy-FgtRVpShGd_WQau-26">
          <mxGeometry relative="1" as="geometry">
            <mxPoint x="680" y="545" as="targetPoint" />
          </mxGeometry>
        </mxCell>
        <mxCell id="uigy-FgtRVpShGd_WQau-59" style="edgeStyle=orthogonalEdgeStyle;rounded=0;orthogonalLoop=1;jettySize=auto;html=1;exitX=0.25;exitY=0;exitDx=0;exitDy=0;" edge="1" parent="1" source="uigy-FgtRVpShGd_WQau-26">
          <mxGeometry relative="1" as="geometry">
            <mxPoint x="600" y="545" as="targetPoint" />
          </mxGeometry>
        </mxCell>
        <mxCell id="uigy-FgtRVpShGd_WQau-60" style="edgeStyle=orthogonalEdgeStyle;rounded=0;orthogonalLoop=1;jettySize=auto;html=1;exitX=0.75;exitY=0;exitDx=0;exitDy=0;" edge="1" parent="1" source="uigy-FgtRVpShGd_WQau-26">
          <mxGeometry relative="1" as="geometry">
            <mxPoint x="760" y="545" as="targetPoint" />
          </mxGeometry>
        </mxCell>
        <mxCell id="uigy-FgtRVpShGd_WQau-124" value="" style="edgeStyle=orthogonalEdgeStyle;rounded=0;orthogonalLoop=1;jettySize=auto;html=1;" edge="1" parent="1" source="uigy-FgtRVpShGd_WQau-26" target="uigy-FgtRVpShGd_WQau-123">
          <mxGeometry relative="1" as="geometry" />
        </mxCell>
        <mxCell id="uigy-FgtRVpShGd_WQau-26" value="CDT" style="rounded=0;whiteSpace=wrap;html=1;fillColor=#0050ef;fontColor=#ffffff;strokeColor=#001DBC;" vertex="1" parent="1">
          <mxGeometry x="635" y="575" width="90" height="50" as="geometry" />
        </mxCell>
        <mxCell id="uigy-FgtRVpShGd_WQau-58" style="edgeStyle=orthogonalEdgeStyle;rounded=0;orthogonalLoop=1;jettySize=auto;html=1;" edge="1" parent="1" source="uigy-FgtRVpShGd_WQau-30">
          <mxGeometry relative="1" as="geometry">
            <mxPoint x="630" y="600" as="targetPoint" />
          </mxGeometry>
        </mxCell>
        <mxCell id="uigy-FgtRVpShGd_WQau-30" value="ABRIR" style="rhombus;whiteSpace=wrap;html=1;fillColor=#6a00ff;fontColor=#ffffff;strokeColor=#3700CC;" vertex="1" parent="1">
          <mxGeometry x="500" y="560" width="80" height="80" as="geometry" />
        </mxCell>
        <mxCell id="uigy-FgtRVpShGd_WQau-32" value="ID" style="ellipse;whiteSpace=wrap;html=1;" vertex="1" parent="1">
          <mxGeometry x="204" y="800" width="60" height="60" as="geometry" />
        </mxCell>
        <mxCell id="uigy-FgtRVpShGd_WQau-33" value="TIPO ID" style="ellipse;whiteSpace=wrap;html=1;" vertex="1" parent="1">
          <mxGeometry x="317" y="790" width="60" height="60" as="geometry" />
        </mxCell>
        <mxCell id="uigy-FgtRVpShGd_WQau-34" value="NOMBRE" style="ellipse;whiteSpace=wrap;html=1;" vertex="1" parent="1">
          <mxGeometry x="40" y="1000" width="60" height="60" as="geometry" />
        </mxCell>
        <mxCell id="uigy-FgtRVpShGd_WQau-35" value="&lt;font style=&quot;font-size: 10px;&quot;&gt;DIRECCION&lt;/font&gt;" style="ellipse;whiteSpace=wrap;html=1;" vertex="1" parent="1">
          <mxGeometry x="200" y="1005" width="60" height="60" as="geometry" />
        </mxCell>
        <mxCell id="uigy-FgtRVpShGd_WQau-36" value="&lt;font style=&quot;font-size: 10px;&quot;&gt;TELEFONO&lt;/font&gt;" style="ellipse;whiteSpace=wrap;html=1;" vertex="1" parent="1">
          <mxGeometry x="130" y="840" width="60" height="60" as="geometry" />
        </mxCell>
        <mxCell id="uigy-FgtRVpShGd_WQau-37" value="CIUDAD" style="ellipse;whiteSpace=wrap;html=1;" vertex="1" parent="1">
          <mxGeometry x="50" y="880" width="60" height="60" as="geometry" />
        </mxCell>
        <mxCell id="uigy-FgtRVpShGd_WQau-38" value="&lt;font style=&quot;font-size: 10px;&quot;&gt;FECHA NACIMIENTO&lt;/font&gt;" style="ellipse;whiteSpace=wrap;html=1;" vertex="1" parent="1">
          <mxGeometry x="220" y="1070" width="60" height="60" as="geometry" />
        </mxCell>
        <mxCell id="uigy-FgtRVpShGd_WQau-40" style="edgeStyle=orthogonalEdgeStyle;rounded=0;orthogonalLoop=1;jettySize=auto;html=1;exitX=0.25;exitY=0;exitDx=0;exitDy=0;entryX=0.667;entryY=1;entryDx=0;entryDy=0;entryPerimeter=0;" edge="1" parent="1" source="uigy-FgtRVpShGd_WQau-1" target="uigy-FgtRVpShGd_WQau-32">
          <mxGeometry relative="1" as="geometry" />
        </mxCell>
        <mxCell id="uigy-FgtRVpShGd_WQau-41" style="edgeStyle=orthogonalEdgeStyle;rounded=0;orthogonalLoop=1;jettySize=auto;html=1;exitX=0;exitY=0.5;exitDx=0;exitDy=0;entryX=1;entryY=0.667;entryDx=0;entryDy=0;entryPerimeter=0;" edge="1" parent="1" source="uigy-FgtRVpShGd_WQau-1" target="uigy-FgtRVpShGd_WQau-36">
          <mxGeometry relative="1" as="geometry" />
        </mxCell>
        <mxCell id="uigy-FgtRVpShGd_WQau-66" style="edgeStyle=orthogonalEdgeStyle;rounded=0;orthogonalLoop=1;jettySize=auto;html=1;entryX=0.5;entryY=1;entryDx=0;entryDy=0;" edge="1" parent="1" source="uigy-FgtRVpShGd_WQau-47" target="uigy-FgtRVpShGd_WQau-48">
          <mxGeometry relative="1" as="geometry" />
        </mxCell>
        <mxCell id="uigy-FgtRVpShGd_WQau-67" style="edgeStyle=orthogonalEdgeStyle;rounded=0;orthogonalLoop=1;jettySize=auto;html=1;exitX=0.75;exitY=0;exitDx=0;exitDy=0;entryX=0.5;entryY=1;entryDx=0;entryDy=0;" edge="1" parent="1" source="uigy-FgtRVpShGd_WQau-47" target="uigy-FgtRVpShGd_WQau-50">
          <mxGeometry relative="1" as="geometry" />
        </mxCell>
        <mxCell id="uigy-FgtRVpShGd_WQau-68" style="edgeStyle=orthogonalEdgeStyle;rounded=0;orthogonalLoop=1;jettySize=auto;html=1;exitX=0.25;exitY=0;exitDx=0;exitDy=0;entryX=0.5;entryY=1;entryDx=0;entryDy=0;" edge="1" parent="1" source="uigy-FgtRVpShGd_WQau-47" target="uigy-FgtRVpShGd_WQau-49">
          <mxGeometry relative="1" as="geometry" />
        </mxCell>
        <mxCell id="uigy-FgtRVpShGd_WQau-100" value="" style="edgeStyle=orthogonalEdgeStyle;rounded=0;orthogonalLoop=1;jettySize=auto;html=1;" edge="1" parent="1" source="uigy-FgtRVpShGd_WQau-47">
          <mxGeometry relative="1" as="geometry">
            <mxPoint x="810" y="820" as="targetPoint" />
          </mxGeometry>
        </mxCell>
        <mxCell id="uigy-FgtRVpShGd_WQau-47" value="&amp;nbsp;CUENTA&amp;nbsp;" style="rounded=0;whiteSpace=wrap;html=1;fillColor=#0050ef;fontColor=#ffffff;strokeColor=#001DBC;" vertex="1" parent="1">
          <mxGeometry x="645" y="795" width="90" height="50" as="geometry" />
        </mxCell>
        <mxCell id="uigy-FgtRVpShGd_WQau-48" value="NOMBRE&amp;nbsp;" style="ellipse;whiteSpace=wrap;html=1;" vertex="1" parent="1">
          <mxGeometry x="660" y="705" width="60" height="60" as="geometry" />
        </mxCell>
        <mxCell id="uigy-FgtRVpShGd_WQau-49" value="ID" style="ellipse;whiteSpace=wrap;html=1;" vertex="1" parent="1">
          <mxGeometry x="580" y="705" width="60" height="60" as="geometry" />
        </mxCell>
        <mxCell id="uigy-FgtRVpShGd_WQau-50" value="INF" style="ellipse;whiteSpace=wrap;html=1;" vertex="1" parent="1">
          <mxGeometry x="740" y="705" width="60" height="60" as="geometry" />
        </mxCell>
        <mxCell id="uigy-FgtRVpShGd_WQau-133" style="edgeStyle=orthogonalEdgeStyle;rounded=0;orthogonalLoop=1;jettySize=auto;html=1;entryX=0;entryY=0.75;entryDx=0;entryDy=0;" edge="1" parent="1" source="uigy-FgtRVpShGd_WQau-51" target="uigy-FgtRVpShGd_WQau-52">
          <mxGeometry relative="1" as="geometry">
            <Array as="points">
              <mxPoint x="540" y="1148" />
              <mxPoint x="608" y="1148" />
            </Array>
          </mxGeometry>
        </mxCell>
        <mxCell id="uigy-FgtRVpShGd_WQau-139" style="edgeStyle=orthogonalEdgeStyle;rounded=0;orthogonalLoop=1;jettySize=auto;html=1;entryX=0;entryY=0.5;entryDx=0;entryDy=0;" edge="1" parent="1" source="uigy-FgtRVpShGd_WQau-51" target="uigy-FgtRVpShGd_WQau-47">
          <mxGeometry relative="1" as="geometry">
            <Array as="points">
              <mxPoint x="540" y="820" />
            </Array>
          </mxGeometry>
        </mxCell>
        <mxCell id="uigy-FgtRVpShGd_WQau-51" value="SOLICITAR" style="rhombus;whiteSpace=wrap;html=1;fillColor=#6a00ff;fontColor=#ffffff;strokeColor=#3700CC;" vertex="1" parent="1">
          <mxGeometry x="500" y="925" width="80" height="80" as="geometry" />
        </mxCell>
        <mxCell id="uigy-FgtRVpShGd_WQau-70" style="edgeStyle=orthogonalEdgeStyle;rounded=0;orthogonalLoop=1;jettySize=auto;html=1;entryX=0.5;entryY=1;entryDx=0;entryDy=0;" edge="1" parent="1" source="uigy-FgtRVpShGd_WQau-52" target="uigy-FgtRVpShGd_WQau-53">
          <mxGeometry relative="1" as="geometry" />
        </mxCell>
        <mxCell id="uigy-FgtRVpShGd_WQau-71" style="edgeStyle=orthogonalEdgeStyle;rounded=0;orthogonalLoop=1;jettySize=auto;html=1;exitX=0.75;exitY=0;exitDx=0;exitDy=0;entryX=0.5;entryY=1;entryDx=0;entryDy=0;" edge="1" parent="1" source="uigy-FgtRVpShGd_WQau-52" target="uigy-FgtRVpShGd_WQau-55">
          <mxGeometry relative="1" as="geometry" />
        </mxCell>
        <mxCell id="uigy-FgtRVpShGd_WQau-72" style="edgeStyle=orthogonalEdgeStyle;rounded=0;orthogonalLoop=1;jettySize=auto;html=1;exitX=0.25;exitY=0;exitDx=0;exitDy=0;entryX=0.5;entryY=1;entryDx=0;entryDy=0;" edge="1" parent="1" source="uigy-FgtRVpShGd_WQau-52" target="uigy-FgtRVpShGd_WQau-54">
          <mxGeometry relative="1" as="geometry" />
        </mxCell>
        <mxCell id="uigy-FgtRVpShGd_WQau-102" value="" style="edgeStyle=orthogonalEdgeStyle;rounded=0;orthogonalLoop=1;jettySize=auto;html=1;" edge="1" parent="1" source="uigy-FgtRVpShGd_WQau-52" target="uigy-FgtRVpShGd_WQau-101">
          <mxGeometry relative="1" as="geometry" />
        </mxCell>
        <mxCell id="uigy-FgtRVpShGd_WQau-52" value="CREDITO" style="rounded=0;whiteSpace=wrap;html=1;fillColor=#0050ef;fontColor=#ffffff;strokeColor=#001DBC;" vertex="1" parent="1">
          <mxGeometry x="635" y="1110" width="90" height="50" as="geometry" />
        </mxCell>
        <mxCell id="uigy-FgtRVpShGd_WQau-53" value="NOMBRE&amp;nbsp;" style="ellipse;whiteSpace=wrap;html=1;" vertex="1" parent="1">
          <mxGeometry x="650" y="1010" width="60" height="60" as="geometry" />
        </mxCell>
        <mxCell id="uigy-FgtRVpShGd_WQau-54" value="ID" style="ellipse;whiteSpace=wrap;html=1;" vertex="1" parent="1">
          <mxGeometry x="570" y="1010" width="60" height="60" as="geometry" />
        </mxCell>
        <mxCell id="uigy-FgtRVpShGd_WQau-55" value="INF" style="ellipse;whiteSpace=wrap;html=1;" vertex="1" parent="1">
          <mxGeometry x="730" y="1010" width="60" height="60" as="geometry" />
        </mxCell>
        <mxCell id="uigy-FgtRVpShGd_WQau-112" value="" style="edgeStyle=orthogonalEdgeStyle;rounded=0;orthogonalLoop=1;jettySize=auto;html=1;" edge="1" parent="1" target="uigy-FgtRVpShGd_WQau-111">
          <mxGeometry relative="1" as="geometry">
            <mxPoint x="890" y="820" as="sourcePoint" />
          </mxGeometry>
        </mxCell>
        <mxCell id="uigy-FgtRVpShGd_WQau-99" value="&lt;font style=&quot;font-size: 10px;&quot;&gt;TRANSACCION&lt;/font&gt;" style="rhombus;whiteSpace=wrap;html=1;fillColor=#6a00ff;strokeColor=#3700CC;fontColor=#ffffff;rounded=0;" vertex="1" parent="1">
          <mxGeometry x="820" y="780" width="80" height="80" as="geometry" />
        </mxCell>
        <mxCell id="uigy-FgtRVpShGd_WQau-116" value="" style="edgeStyle=orthogonalEdgeStyle;rounded=0;orthogonalLoop=1;jettySize=auto;html=1;" edge="1" parent="1" source="uigy-FgtRVpShGd_WQau-101" target="uigy-FgtRVpShGd_WQau-115">
          <mxGeometry relative="1" as="geometry" />
        </mxCell>
        <mxCell id="uigy-FgtRVpShGd_WQau-101" value="&lt;font style=&quot;font-size: 10px;&quot;&gt;TRANSACCION&lt;/font&gt;" style="rhombus;whiteSpace=wrap;html=1;fillColor=#6a00ff;strokeColor=#3700CC;fontColor=#ffffff;rounded=0;" vertex="1" parent="1">
          <mxGeometry x="810" y="1095" width="80" height="80" as="geometry" />
        </mxCell>
        <mxCell id="uigy-FgtRVpShGd_WQau-114" style="edgeStyle=orthogonalEdgeStyle;rounded=0;orthogonalLoop=1;jettySize=auto;html=1;entryX=0;entryY=0.5;entryDx=0;entryDy=0;" edge="1" parent="1" source="uigy-FgtRVpShGd_WQau-111" target="uigy-FgtRVpShGd_WQau-113">
          <mxGeometry relative="1" as="geometry" />
        </mxCell>
        <mxCell id="uigy-FgtRVpShGd_WQau-111" value="CONSIGNAR" style="whiteSpace=wrap;html=1;fillColor=#0050ef;strokeColor=#001DBC;fontColor=#ffffff;rounded=0;" vertex="1" parent="1">
          <mxGeometry x="950" y="790" width="120" height="60" as="geometry" />
        </mxCell>
        <mxCell id="uigy-FgtRVpShGd_WQau-113" value="ID" style="ellipse;whiteSpace=wrap;html=1;" vertex="1" parent="1">
          <mxGeometry x="1160" y="790" width="60" height="60" as="geometry" />
        </mxCell>
        <mxCell id="uigy-FgtRVpShGd_WQau-118" style="edgeStyle=orthogonalEdgeStyle;rounded=0;orthogonalLoop=1;jettySize=auto;html=1;entryX=0;entryY=0.5;entryDx=0;entryDy=0;" edge="1" parent="1" source="uigy-FgtRVpShGd_WQau-115" target="uigy-FgtRVpShGd_WQau-117">
          <mxGeometry relative="1" as="geometry" />
        </mxCell>
        <mxCell id="uigy-FgtRVpShGd_WQau-115" value="DESEMBOLSO" style="whiteSpace=wrap;html=1;fillColor=#0050ef;strokeColor=#001DBC;fontColor=#ffffff;rounded=0;" vertex="1" parent="1">
          <mxGeometry x="940" y="1105" width="120" height="60" as="geometry" />
        </mxCell>
        <mxCell id="uigy-FgtRVpShGd_WQau-117" value="ID" style="ellipse;whiteSpace=wrap;html=1;" vertex="1" parent="1">
          <mxGeometry x="1150" y="1105" width="60" height="60" as="geometry" />
        </mxCell>
        <mxCell id="uigy-FgtRVpShGd_WQau-126" value="" style="edgeStyle=orthogonalEdgeStyle;rounded=0;orthogonalLoop=1;jettySize=auto;html=1;" edge="1" parent="1" source="uigy-FgtRVpShGd_WQau-123" target="uigy-FgtRVpShGd_WQau-125">
          <mxGeometry relative="1" as="geometry" />
        </mxCell>
        <mxCell id="uigy-FgtRVpShGd_WQau-123" value="&lt;font style=&quot;font-size: 10px;&quot;&gt;TRANSACCION&lt;/font&gt;" style="rhombus;whiteSpace=wrap;html=1;fillColor=#6a00ff;strokeColor=#3700CC;fontColor=#ffffff;rounded=0;" vertex="1" parent="1">
          <mxGeometry x="810" y="560" width="80" height="80" as="geometry" />
        </mxCell>
        <mxCell id="uigy-FgtRVpShGd_WQau-125" value="APERTURA" style="whiteSpace=wrap;html=1;fillColor=#0050ef;strokeColor=#001DBC;fontColor=#ffffff;rounded=0;" vertex="1" parent="1">
          <mxGeometry x="950" y="570" width="120" height="60" as="geometry" />
        </mxCell>
        <mxCell id="uigy-FgtRVpShGd_WQau-130" value="ID" style="ellipse;whiteSpace=wrap;html=1;" vertex="1" parent="1">
          <mxGeometry x="1140" y="570" width="60" height="60" as="geometry" />
        </mxCell>
      </root>
    </mxGraphModel>
  </diagram>
</mxfile>
